Coordinates
version=1
nRows=4
nColumns=63
inDegrees=yes

Units are S.I. units (second, meters, Newtons, ...)
If the header above contains a line with 'inDegrees', this indicates whether rotational values are in degrees (yes) or radians (no).

endheader
time	pelvis_tilt	pelvis_list	pelvis_rotation	pelvis_tx	pelvis_ty	pelvis_tz	hip_flexion_r	hip_adduction_r	hip_rotation_r	knee_angle_r	knee_angle_r_beta	ankle_angle_r	subtalar_angle_r	mtp_angle_r	hip_flexion_l	hip_adduction_l	hip_rotation_l	knee_angle_l	knee_angle_l_beta	ankle_angle_l	subtalar_angle_l	mtp_angle_l	L5_S1_Flex_Ext	L5_S1_Lat_Bending	L5_S1_axial_rotation	L4_L5_Flex_Ext	L4_L5_Lat_Bending	L4_L5_axial_rotation	L3_L4_Flex_Ext	L3_L4_Lat_Bending	L3_L4_axial_rotation	L2_L3_Flex_Ext	L2_L3_Lat_Bending	L2_L3_axial_rotation	L1_L2_Flex_Ext	L1_L2_Lat_Bending	L1_L2_axial_rotation	L1_T12_Flex_Ext	L1_T12_Lat_Bending	L1_T12_axial_rotation	Abs_r3	Abs_r2	Abs_r1	Abs_t1	Abs_t2	neck_flexion	neck_bending	neck_rotation	arm_flex_r	arm_add_r	arm_rot_r	elbow_flex_r	pro_sup_r	wrist_flex_r	wrist_dev_r	arm_flex_l	arm_add_l	arm_rot_l	elbow_flex_l	pro_sup_l	wrist_flex_l	wrist_dev_l
      0.00000000	     -1.66680287	    -10.58892256	     79.94737791	      0.23505872	      0.37510186	      0.95167645	      9.56503812	      4.08510490	     -8.82042523	      7.19802527	      0.12562924	     19.34631462	    -10.61592170	      0.00000000	     11.71743094	     -4.55869661	     -7.57552230	     11.72496871	      0.20463931	     26.86886374	     12.92853814	      0.00000000	      0.35402900	      0.03154347	      0.17535928	      0.65746726	      0.04195281	      0.18631924	      0.58163425	      0.07669479	      0.18631924	      0.40461975	      0.07669479	      0.15343937	      0.32875133	      0.06432344	      0.14247942	      0.20229217	      0.04886083	      0.13151946	      2.52879377	      0.35682603	      0.97529571	      0.00000000	      0.00000000	     28.25321290	     -2.31136755	    -11.32125472	     12.25009680	     -5.72947392	     57.45701047	     28.17289649	     49.98055514	      6.08897881	      7.25260685	     23.46105562	      2.75727579	    114.17182910	     24.28432673	     66.28228865	    -17.50166757	     -8.96350280
      0.02173913	     -2.23426088	    -11.09655116	     78.22122528	      0.23538171	      0.37453324	      0.95339273	     10.86923501	      3.74955005	     -6.94525495	      8.28254056	      0.14455760	     19.91854946	    -11.02213679	      0.00000000	     12.19397314	     -4.37450604	     -9.35868433	     11.73434054	      0.20480288	     26.44696603	     12.63574648	      0.00000000	      0.43271596	      0.01300342	      0.32847239	      0.80359680	      0.01729455	      0.34900191	      0.71090904	      0.03161651	      0.34900191	      0.49455107	      0.03161651	      0.28741334	      0.40182004	      0.02651657	      0.26688382	      0.24725390	      0.02014229	      0.24635429	      3.09084680	      0.14709727	      1.82686488	      0.00000000	      0.00000000	     28.29160908	     -1.42121179	     -8.99776162	     12.57221992	     -5.54003799	     57.78689037	     28.02166742	     49.46186442	      6.49242770	      7.77741398	     22.91546852	      1.92180050	    109.90597488	     24.78420676	     62.48193684	    -15.79770199	     -9.66229680
      0.04347826	     -2.58106978	    -11.32017978	     77.38949789	      0.23532762	      0.37439562	      0.95469121	     11.51992458	      3.60700394	     -5.11191867	      8.70309164	      0.15189760	     19.91060782	    -12.53564670	      0.00000000	     12.56480215	     -4.36168116	    -11.21944097	     11.96732482	      0.20886922	     26.46828748	     13.95159000	      0.00000000	      0.46807152	      0.00002799	      0.33243963	      0.86925562	      0.00003723	      0.35321711	      0.76899470	      0.00006807	      0.35321711	      0.53495894	      0.00006807	      0.29088467	      0.43465121	      0.00005709	      0.27010720	      0.26745607	      0.00004336	      0.24932972	      3.34338805	      0.00031668	      1.84892948	      0.00000000	      0.00000000	     28.30505641	     -0.67640051	     -7.10283791	     13.54425658	     -5.44176082	     61.68582500	     27.57691048	     45.54969272	      6.44168613	      7.36859436	     22.40754625	      1.51903231	    107.75591460	     24.70647450	     56.63986945	    -13.47030085	    -10.62025018
      0.06521739	     -3.04689876	    -11.48215133	     76.56906468	      0.23526271	      0.37422514	      0.95593117	     12.33701762	      3.06481048	     -6.43039234	      9.59235275	      0.16741814	     21.40831961	     -9.34527412	      0.00000000	     12.77548336	     -3.93657754	    -10.62281781	     11.78474956	      0.20568268	     26.30870646	     12.30544239	      0.00000000	      0.49562513	     -0.03468876	      0.43180355	      0.92042542	     -0.04613605	      0.45879127	      0.81426252	     -0.08434225	      0.45879127	      0.56644996	     -0.08434225	      0.37782811	      0.46023749	     -0.07073732	      0.35084038	      0.28320020	     -0.05373289	      0.32385266	      3.54020072	     -0.39240618	      2.40156180	      0.00000000	      0.00000000	     28.31910720	     -0.34186820	     -6.37947878	     13.67026514	     -5.37184999	     61.83402539	     27.60356939	     45.22930585	      6.46997622	      7.83492974	     22.14422795	      1.36889440	    106.72828627	     24.75420046	     55.35859999	    -12.83457266	    -10.60358297
